<?xml version="1.0" encoding="utf-8"?>
<!-- Generator: Adobe Illustrator 18.1.1, SVG Export Plug-In . SVG Version: 6.00 Build 0)  -->
<svg version="1.1" id="Layer_1" xmlns="http://www.w3.org/2000/svg" xmlns:xlink="http://www.w3.org/1999/xlink" x="0px" y="0px"
	 viewBox="0 0 94.2 35.8" enable-background="new 0 0 94.2 35.8" xml:space="preserve">
<g>
	<rect x="0" y="0" fill="none" stroke="#FFFFFF" stroke-width="0.6587" stroke-miterlimit="10" width="94.2" height="35.8"/>
	<g>
		<path fill="#FFFFFF" d="M25.7,13.2h5.6v0.6h-5V18h4.1v0.6h-4.1v4.3h5.3v0.6h-5.9V13.2z"/>
		<path fill="#FFFFFF" d="M34.1,13.2h0.6l5.9,8.1c0.3,0.5,0.8,1.3,0.8,1.3h0c0,0-0.1-0.8-0.1-1.3v-8.1H42v10.3h-0.6l-5.9-8.1
			c-0.3-0.5-0.8-1.3-0.8-1.3h0c0,0,0.1,0.8,0.1,1.3v8.1h-0.6V13.2z"/>
		<path fill="#FFFFFF" d="M47.6,13.8h-3.8v-0.6H52v0.6h-3.8v9.7h-0.6V13.8z"/>
		<path fill="#FFFFFF" d="M53.8,13.2h5.6v0.6h-5V18h4.1v0.6h-4.1v4.3h5.3v0.6h-5.9V13.2z"/>
		<path fill="#FFFFFF" d="M62.2,13.2h3c1,0,1.4,0.1,1.9,0.3c0.9,0.4,1.4,1.3,1.4,2.5c0,1.5-0.9,2.6-2.1,2.8v0c0,0,0.1,0.1,0.2,0.4
			l2.3,4.3h-0.8l-2.4-4.6h-3v4.6h-0.6V13.2z M65.6,18.4c1.4,0,2.2-1,2.2-2.4c0-0.9-0.5-1.6-1.2-2c-0.3-0.1-0.6-0.2-1.4-0.2h-2.4v4.6
			H65.6z"/>
	</g>
</g>
</svg>
